<svg xmlns="http://www.w3.org/2000/svg" xmlns:xlink="http://www.w3.org/1999/xlink" fill="none" version="1.1" width="122" height="32" viewBox="0 0 122 32"><defs><clipPath id="master_svg0_1_3915"><rect x="0" y="0" width="122" height="32" rx="0"/></clipPath></defs><g clip-path="url(#master_svg0_1_3915)"><g><g><path d="M50.7969175,12.5802211328125L52.5140875,10.474821132812501L44.8390775,10.474821132812501C43.1219075,10.474821132812501,41.7481695,9.0861511328125,41.7481695,7.3839111328125L59.2931875,7.3839111328125L49.2589275,20.0014111328125L47.4670975,22.2262111328125L55.6348875,22.2262111328125C57.3519875,22.2262111328125,58.725787499999996,23.6149111328125,58.725787499999996,25.3171111328125L40.8671875,25.3171111328125L50.7969175,12.5802211328125Z" fill="#FFFFFF" fill-opacity="1" style="mix-blend-mode:passthrough"/></g><g><path d="M60.876953125,12.4459228515625L64.266503125,12.4459228515625L64.266503125,25.317222851562498L60.876953125,25.317222851562498L60.876953125,12.4459228515625Z" fill="#FFFFFF" fill-opacity="1" style="mix-blend-mode:passthrough"/></g><g><path d="M68.3720703125,7.3839111328125L77.9434303125,7.3839111328125C79.1080703125,7.3839111328125,80.1384703125,7.5033651328125,81.0044703125,7.7572091328125C81.8705703125,8.0110531328125,82.5872703125,8.3544861328125,83.1695703125,8.7875111328125C83.7369703125,9.2205311328125,84.1700703125,9.7431511328125,84.4537703125,10.3404311328125C84.7374703125,10.9377011328125,84.8718703125,11.594711132812499,84.8718703125,12.2815811328125C84.8718703125,13.4164011328125,84.5134703125,14.4168411328125,83.7967703125,15.2828911328125C84.6179703125,15.7756511328125,85.2451703125,16.4027911328125,85.6482703125,17.1941811328125C86.0514703125,17.9706111328125,86.2604703125,18.866511132812498,86.2604703125,19.8520111328125C86.2604703125,20.688211132812498,86.1260703125,21.4348111328125,85.84237031250001,22.1068111328125C85.5586703125,22.7787111328125,85.1405703125,23.3610111328125,84.5731703125,23.8389111328125C84.0057703125,24.3167111328125,83.2890703125,24.6900111328125,82.4229703125,24.9438111328125C81.5569703125,25.1977111328125,80.5266703125,25.3321111328125,79.3470703125,25.3321111328125L68.3869986125,25.3321111328125L68.3869986125,7.3839111328125L68.3720703125,7.3839111328125ZM79.3470703125,14.2675311328125C79.6605703125,14.2675311328125,79.9592703125,14.2824611328125,80.2578703125,14.2973911328125C80.7655703125,13.804641132812499,81.0193703125,13.2521611328125,81.0193703125,12.6250111328125C81.0193703125,11.9680111328125,80.7655703125,11.475251132812499,80.2578703125,11.1168911328125C79.7501703125,10.7585211328125,79.0035703125,10.5793411328125,78.0330203125,10.5793411328125L72.0005203125,10.5793411328125L72.0005203125,14.2675311328125L79.3470703125,14.2675311328125ZM79.4216703125,22.151611132812498C80.4071703125,22.151611132812498,81.1388703125,21.9425111328125,81.6465703125,21.5244111328125C82.1542703125,21.1063111328125,82.4080703125,20.5091111328125,82.4080703125,19.747511132812498C82.4080703125,18.9860111328125,82.1542703125,18.3887111328125,81.6465703125,17.9557111328125C81.1388703125,17.5227111328125,80.3922703125,17.3136411328125,79.4216703125,17.3136411328125L72.0154603125,17.3136411328125L72.0154603125,22.151611132812498L79.4216703125,22.151611132812498Z" fill="#FFFFFF" fill-opacity="1" style="mix-blend-mode:passthrough"/></g><g><path d="M93.65234375,11.7740478515625L97.04189375,11.7740478515625L97.04189375,25.3172478515625L93.65234375,25.3172478515625L93.65234375,11.7740478515625Z" fill="#FFFFFF" fill-opacity="1" style="mix-blend-mode:passthrough"/></g><g><path d="M102.49133375,11.7588161360625L102.49133375,15.1483894140625L93.65234375,15.1641394140625L93.65234375,11.7745646140625L102.49133375,11.7588161360625Z" fill="#FFFFFF" fill-opacity="1" style="mix-blend-mode:passthrough"/></g><g><path d="M102.984375,18.5979673828125C102.984375,17.5228673828125,103.193426,16.552267382812502,103.59658,15.6713073828125C103.999745,14.8052573828125,104.567155,14.0586573828125,105.283885,13.4464473828125C106.000615,12.8342373828125,106.851735,12.3564273828125,107.83723499999999,12.0279173828125C108.822745,11.6994173828125,109.882915,11.5351673828125,111.032675,11.5351673828125C111.525425,11.5351673828125,112.00324499999999,11.5650373828125,112.481075,11.6247573828125C112.958895,11.684487382812499,113.421775,11.7740773828125,113.854775,11.8786073828125C114.287875,11.9831273828125,114.705975,12.117517382812501,115.094175,12.2668373828125C115.482375,12.4161573828125,115.825775,12.5804073828125,116.124475,12.7595873828125L116.124475,6.2940673828125L119.513975,6.2940673828125L119.513975,25.3322673828125L116.124475,25.3322673828125L116.124475,24.0630673828125C115.825775,24.2720673828125,115.46747500000001,24.4661673828125,115.064275,24.6453673828125C114.661175,24.8245673828125,114.228075,24.9888673828125,113.750275,25.1231673828125C113.287375,25.2575673828125,112.794645,25.3770673828125,112.301895,25.4517673828125C111.794205,25.5263673828125,111.301455,25.5711673828125,110.808705,25.5711673828125C109.658945,25.5711673828125,108.613715,25.4069673828125,107.643135,25.0634673828125C106.687485,24.7200673828125,105.866235,24.2571673828125,105.164445,23.6449673828125C104.477575,23.0327673828125,103.940021,22.3010673828125,103.551795,21.449967382812503C103.178488,20.5838673828125,102.984375,19.6282673828125,102.984375,18.5979673828125ZM106.553095,18.5979673828125C106.553095,19.1354673828125,106.657625,19.6581673828125,106.881605,20.135967382812503C107.105585,20.613767382812497,107.419145,21.0467673828125,107.822315,21.4051673828125C108.225475,21.7635673828125,108.718225,22.0621673828125,109.300575,22.2711673828125C109.882925,22.4802673828125,110.524995,22.5847673828125,111.241725,22.5847673828125C111.704605,22.5847673828125,112.152565,22.5399673828125,112.615465,22.4503673828125C113.078375,22.3607673828125,113.511375,22.2413673828125,113.94437500000001,22.0770673828125C114.362475,21.9128673828125,114.765675,21.7187673828125,115.138975,21.494767382812498C115.512275,21.2707673828125,115.825775,21.001967382812502,116.109575,20.7332673828125L116.109575,16.0446073828125C115.766075,15.7758273828125,115.407775,15.5369173828125,115.019475,15.3427973828125C114.631275,15.1486873828125,114.243075,14.9993673828125,113.854775,14.8649773828125C113.451675,14.7455273828125,113.048475,14.6559373828125,112.645335,14.5962073828125C112.242175,14.5364773828125,111.839005,14.5066173828125,111.465715,14.5066173828125C110.689255,14.5066173828125,109.987445,14.6111373828125,109.390175,14.8201873828125C108.777965,15.0292273828125,108.270275,15.3129373828125,107.852185,15.6862373828125C107.434095,16.059527382812497,107.120515,16.4925673828125,106.896535,16.985267382812502C106.672565,17.478067382812497,106.553095,18.015667382812502,106.553095,18.5979673828125Z" fill="#FFFFFF" fill-opacity="1" style="mix-blend-mode:passthrough"/></g><g><path d="M62.6237015625,10.7737426953125L60.8916015625,10.7737426953125L60.8916015625,8.9669826953125C60.8916015625,8.0859976953125,61.6083315625,7.3692626953125,62.4893215625,7.3692626953125L64.2960815625,7.3692626953125L64.2960815625,9.101362695312499C64.2811515625,10.0271426953125,63.5345515625,10.7737426953125,62.6237015625,10.7737426953125Z" fill="#FFFFFF" fill-opacity="1" style="mix-blend-mode:passthrough"/></g><g><path d="M87.93359375,12.4459228515625L91.32314375,12.4459228515625L91.32314375,25.317222851562498L87.93359375,25.317222851562498L87.93359375,12.4459228515625Z" fill="#FFFFFF" fill-opacity="1" style="mix-blend-mode:passthrough"/></g><g><path d="M89.6803421875,10.7737426953125L87.9482421875,10.7737426953125L87.9482421875,8.9669826953125C87.9482421875,8.0859976953125,88.6649721875,7.3692626953125,89.5459621875,7.3692626953125L91.3527221875,7.3692626953125L91.3527221875,9.101362695312499C91.3377921875,10.0271426953125,90.5911921875,10.7737426953125,89.6803421875,10.7737426953125Z" fill="#FFFFFF" fill-opacity="1" style="mix-blend-mode:passthrough"/></g></g><g><g><g><rect x="0" y="0" width="32" height="32" rx="6.90000057220459" fill="#FFFFFF" fill-opacity="1"/></g><g><g><path d="M13.45897,15.94480125C15.08954,17.48802125,17.24425,18.346991250000002,19.48625,18.346991250000002L20.98585,18.346991250000002L24.47985,21.63725125L26.76565,23.80653125L23.31525,23.80653125L15.38075,23.80653125C9.76106,23.80653125,5.21875,19.24963125,5.21875,13.64453125L10.99855,13.64453125L13.45897,15.94480125Z" fill="#6F00FF" fill-opacity="1"/></g><g><path d="M20.66555,12.363710000000001Q18.58365,14.48928,16.19605,14.41649C15.07498,13.89237,13.83749,13.61576,12.57089,13.61576L10.99855,13.61576L5.21875,8.15625L16.603650000000002,8.15625C19.58815,8.15625,22.26695,9.43741,24.11595,11.47563C25.76105,13.28091,26.76565,15.68309,26.76565,18.31825L25.32425,18.31825L20.98585,18.31825L19.136850000000003,16.571170000000002Q21.58275,14.88237,20.66555,12.363710000000001Z" fill="#6F00FF" fill-opacity="1"/></g></g><g><path d="M16.19745,14.41109Q18.57051,14.46932,20.66697,12.34375Q21.5842,14.862400000000001,19.1383,16.56577L20.98726,18.31281L19.48771,18.31281C17.24568,18.31281,15.09099,17.45385,13.46042,15.91063L11,13.5958L12.58689,13.5958C13.838940000000001,13.5958,15.07643,13.88697,16.19745,14.41109Z" fill="#2AFCF1" fill-opacity="1" style="mix-blend-mode:passthrough"/></g></g></g></g></svg>