<svg xmlns="http://www.w3.org/2000/svg" xmlns:xlink="http://www.w3.org/1999/xlink" fill="none" version="1.1" width="118" height="24" viewBox="0 0 118 24"><g><g><g><g><path d="M19.350715625,15.182517392578125L21.212215625,15.182517392578125L28.348015625,21.921477392578126L14.293715625,21.921477392578126C7.359565625,21.921477392578126,1.728515625,16.297937392578124,1.728515625,9.373077392578125L8.864275625000001,9.373077392578125L11.904715625,12.239067392578125C13.921315625,14.129077392578125,16.589515625,15.182517392578125,19.350715625,15.182517392578125Z" fill="#6F00FF" fill-opacity="1"/></g><g><path d="M15.7837671875,2.634796142578125C22.7178671875,2.634796142578125,28.3488671875,8.258336142578125,28.3488671875,15.183196142578126L21.2131671875,15.183196142578126L18.9172671875,13.029796142578125Q21.9421671875,10.922936142578125,20.8097671875,7.824566142578125Q18.2346671875,10.442686142578125,15.2873671875,10.365226142578125C13.8911671875,9.714566142578125,12.3709671875,9.373746142578124,10.8042171875,9.373746142578124L8.849627187500001,9.373746142578124L1.7138671875,2.634796142578125L15.7837671875,2.634796142578125Z" fill="#6F00FF" fill-opacity="1"/></g></g><g><path d="M43.865814375,8.808994892578125L45.465534375000004,6.628664892578125L38.315464375,6.628664892578125C36.715744375,6.628664892578125,35.435961375,5.190584892578125,35.435961375,3.427764892578125L51.780934375,3.427764892578125L42.433024375,16.494264892578123L40.763744375,18.798264892578125L48.372834375,18.798264892578125C49.972634375,18.798264892578125,51.252334375000004,20.236364892578123,51.252334375000004,21.999164892578126L34.615234375,21.999164892578126L43.865814375,8.808994892578125Z" fill="#0D0F2C" fill-opacity="1" style="mix-blend-mode:passthrough"/></g><g><path d="M55.082088470458984,8.382843017578125L58.60343847045898,8.382843017578125L58.60343847045898,21.736843017578124L55.082088470458984,21.736843017578124L55.082088470458984,8.382843017578125Z" fill="#0D0F2C" fill-opacity="1" style="mix-blend-mode:passthrough"/></g><g><path d="M62.869140625,3.130900263786316L72.812670625,3.130900263786316C74.022640625,3.130900263786316,75.093040625,3.254833263786316,75.992740625,3.518196263786316C76.892440625,3.781560263786316,77.637040625,4.137870263786316,78.242040625,4.587130263786316C78.831540625,5.036400263786316,79.281440625,5.578610263786316,79.576140625,6.198280263786316C79.870840625,6.817960263786316,80.010440625,7.4996002637863155,80.010440625,8.212220263786316C80.010440625,9.389610263786317,79.638140625,10.427560263786315,78.893540625,11.326090263786316C79.746740625,11.837320263786316,80.398340625,12.487980263786316,80.81714062500001,13.309000263786317C81.235940625,14.114600263786317,81.453140625,15.044100263786316,81.453140625,16.066600263786317C81.453140625,16.934100263786316,81.313540625,17.708700263786316,81.018840625,18.405900263786314C80.724040625,19.103000263786313,80.28974062500001,19.707200263786316,79.70024062499999,20.202900263786315C79.110740625,20.698700263786314,78.366140625,21.086000263786318,77.466440625,21.349300263786315C76.566740625,21.612700263786316,75.496340625,21.752100263786318,74.270840625,21.752100263786318L62.884649325,21.752100263786318L62.884649325,3.130900263786316L62.869140625,3.130900263786316ZM74.270840625,10.272640263786316C74.59664062499999,10.272640263786316,74.906840625,10.288140263786316,75.217140625,10.303630263786316C75.744540625,9.792400263786316,76.008240625,9.219200263786316,76.008240625,8.568540263786316C76.008240625,7.886900263786316,75.744540625,7.375670263786316,75.217140625,7.003860263786316C74.689640625,6.632060263786316,73.914040625,6.446150263786316,72.90574062499999,6.446150263786316L66.638680625,6.446150263786316L66.638680625,10.272640263786316L74.270840625,10.272640263786316ZM74.348440625,18.452300263786316C75.372240625,18.452300263786316,76.132340625,18.235500263786314,76.659840625,17.801700263786316C77.187240625,17.367900263786318,77.450940625,16.748200263786316,77.450940625,15.958100263786315C77.450940625,15.168100263786316,77.187240625,14.548400263786316,76.659840625,14.099100263786315C76.132340625,13.649900263786316,75.356740625,13.433000263786315,74.348440625,13.433000263786315L66.654200625,13.433000263786315L66.654200625,18.452300263786316L74.348440625,18.452300263786316Z" fill="#0D0F2C" fill-opacity="1" style="mix-blend-mode:passthrough"/></g><g><path d="M89.1318359375,7.685507297515869L92.6531859375,7.685507297515869L92.6531859375,21.736607297515867L89.1318359375,21.736607297515867L89.1318359375,7.685507297515869Z" fill="#0D0F2C" fill-opacity="1" style="mix-blend-mode:passthrough"/></g><g><path d="M98.3155025,7.669347242578125L98.3155025,11.186022392578124L89.1328125,11.202362392578125L89.1328125,7.685686292578125L98.3155025,7.669347242578125Z" fill="#0D0F2C" fill-opacity="1" style="mix-blend-mode:passthrough"/></g><g><path d="M98.8271484375,14.765330517578125C98.8271484375,13.649930517578126,99.0443274375,12.642930517578124,99.4631584375,11.728900517578126C99.8819984375,10.830380517578124,100.4714684375,10.055790517578124,101.2160684375,9.420620517578126C101.9606684375,8.785450517578125,102.8448884375,8.289720517578125,103.8687084375,7.948890517578125C104.8925384375,7.608070517578125,105.9939284375,7.437660517578125,107.1883984375,7.437660517578125C107.7003084375,7.437660517578125,108.1967084375,7.468650517578125,108.6931184375,7.530620517578125C109.1895484375,7.592580517578125,109.6704484375,7.685540517578125,110.1202484375,7.793980517578125C110.5701484375,7.902430517578125,111.0044484375,8.041850517578126,111.40784843750001,8.196770517578125C111.8111484375,8.351690517578124,112.1679484375,8.522100517578124,112.4781484375,8.708000517578125L112.4781484375,2.000030517578125L115.9995484375,2.000030517578125L115.9995484375,21.752130517578124L112.4781484375,21.752130517578124L112.4781484375,20.435330517578127C112.1679484375,20.652230517578126,111.7956484375,20.853630517578125,111.3767484375,21.039530517578125C110.9579484375,21.225430517578125,110.5080484375,21.395830517578126,110.0116484375,21.535230517578125C109.5308484375,21.674630517578127,109.0188484375,21.798630517578125,108.5069684375,21.876030517578126C107.9795384375,21.953530517578123,107.4676284375,22.000030517578125,106.9557184375,22.000030517578125C105.7612484375,22.000030517578125,104.6753784375,21.829630517578124,103.6670584375,21.473330517578123C102.6742584375,21.116930517578126,101.8210684375,20.636730517578126,101.0919884375,20.001530517578125C100.3784084375,19.366430517578124,99.8199544375,18.607330517578124,99.4166324375,17.724230517578125C99.0288094375,16.825730517578123,98.8271484375,15.834230517578124,98.8271484375,14.765330517578125ZM102.5346384375,14.765330517578125C102.5346384375,15.323030517578125,102.6432284375,15.865230517578125,102.8759184375,16.360930517578126C103.1086084375,16.856730517578125,103.4343584375,17.305930517578126,103.8532084375,17.677730517578127C104.2720384375,18.049530517578123,104.7839584375,18.359430517578126,105.3889484375,18.576330517578125C105.9939384375,18.793230517578124,106.6609784375,18.901630517578123,107.4055784375,18.901630517578123C107.8864584375,18.901630517578123,108.35183843749999,18.855130517578125,108.8327484375,18.762230517578125C109.3136484375,18.669230517578125,109.7634484375,18.545330517578126,110.2133484375,18.374930517578125C110.6477484375,18.204530517578124,111.0665484375,18.003130517578125,111.4543484375,17.770730517578123C111.8421484375,17.538330517578125,112.1679484375,17.259530517578124,112.46264843750001,16.980630517578128L112.46264843750001,12.116230517578124C112.1058484375,11.837350517578125,111.7335484375,11.589480517578124,111.3302484375,11.388080517578125C110.9269484375,11.186690517578125,110.5236484375,11.031770517578124,110.1202484375,10.892340517578125C109.7014484375,10.768410517578126,109.2826484375,10.675450517578126,108.86374843749999,10.613490517578125C108.4449284375,10.551520517578124,108.0260884375,10.520540517578125,107.6382784375,10.520540517578125C106.8316184375,10.520540517578125,106.1025284375,10.628980517578125,105.4820284375,10.845870517578126C104.84601843749999,11.062750517578126,104.3185884375,11.357100517578125,103.8842384375,11.744390517578125C103.4498884375,12.131730517578125,103.1241184375,12.580930517578125,102.8914384375,13.092230517578125C102.6587484375,13.603430517578126,102.5346384375,14.161130517578124,102.5346384375,14.765330517578125Z" fill="#0D0F2C" fill-opacity="1" style="mix-blend-mode:passthrough"/></g><g><path d="M56.89710625,6.647404892578125L55.09765625,6.647404892578125L55.09765625,4.772894892578125C55.09765625,3.858875892578125,55.84225625,3.115264892578125,56.75749625,3.115264892578125L58.63451625,3.115264892578125L58.63451625,4.912324892578125C58.61900625,5.872814892578125,57.84337625,6.647404892578125,56.89710625,6.647404892578125Z" fill="#0D0F2C" fill-opacity="1" style="mix-blend-mode:passthrough"/></g><g><path d="M83.19140625,8.382843017578125L86.71275625,8.382843017578125L86.71275625,21.736843017578124L83.19140625,21.736843017578124L83.19140625,8.382843017578125Z" fill="#0D0F2C" fill-opacity="1" style="mix-blend-mode:passthrough"/></g><g><path d="M85.0055046875,6.647404892578125L83.2060546875,6.647404892578125L83.2060546875,4.772894892578125C83.2060546875,3.858875892578125,83.9506546875,3.115264892578125,84.8658946875,3.115264892578125L86.7429146875,3.115264892578125L86.7429146875,4.912324892578125C86.7274046875,5.872814892578125,85.9517746875,6.647404892578125,85.0055046875,6.647404892578125Z" fill="#0D0F2C" fill-opacity="1" style="mix-blend-mode:passthrough"/></g></g></g></svg>